<?xml version="1.0" standalone="no"?>
<!DOCTYPE svg PUBLIC "-//W3C//DTD SVG 20010904//EN"
 "http://www.w3.org/TR/2001/REC-SVG-20010904/DTD/svg10.dtd">
<svg version="1.0" xmlns="http://www.w3.org/2000/svg"
 width="512.000000pt" height="512.000000pt" viewBox="0 0 512.000000 512.000000"
 preserveAspectRatio="xMidYMid meet">

<g transform="translate(0.000000,512.000000) scale(0.100000,-0.100000)"
fill="#000000" stroke="none">
<path d="M2867 4750 c-110 -28 -201 -103 -250 -208 l-32 -67 -5 -780 -5 -779
-147 -46 -147 -45 -27 -80 c-50 -153 -147 -312 -264 -434 -28 -30 -48 -57 -43
-60 5 -3 31 -21 58 -40 341 -235 571 -605 631 -1014 12 -84 15 -152 11 -273
l-5 -162 72 -40 c90 -52 149 -66 234 -59 47 4 274 71 757 222 849 266 940 296
1029 341 188 96 322 236 367 384 19 63 19 91 17 925 l-3 860 -33 67 c-20 42
-51 83 -81 110 -48 43 -1829 1120 -1914 1158 -52 23 -166 33 -220 20z m997
-1010 l806 -485 0 -698 c0 -384 -4 -697 -8 -695 -5 2 -371 221 -815 488 l-806
485 -1 698 c0 415 4 697 9 695 5 -1 372 -221 815 -488z"/>
<path d="M1083 3919 c-271 -27 -524 -205 -643 -453 -62 -129 -74 -190 -75
-356 0 -125 3 -155 23 -220 89 -280 293 -483 569 -562 112 -33 314 -33 427 0
296 85 515 318 581 617 24 107 17 300 -15 400 -120 378 -476 614 -867 574z"/>
<path d="M1080 2129 c-197 -16 -376 -79 -545 -192 -82 -55 -251 -227 -308
-314 -140 -215 -227 -486 -227 -706 1 -268 135 -442 410 -533 51 -17 108 -19
734 -22 653 -3 682 -2 758 17 119 30 219 82 286 149 72 70 105 127 132 223 62
225 -25 607 -197 860 -127 186 -266 311 -448 402 -189 95 -382 132 -595 116z"/>
</g>
</svg>
